<?xml version="1.0" encoding="utf-8"?>
<svg height="45" version="1.1" id="Layer_1" xmlns="http://www.w3.org/2000/svg" xmlns:xlink="http://www.w3.org/1999/xlink" x="0px" y="0px"
	 viewBox="0 0 179.9 47" style="enable-background:new 0 0 179.9 47;" xml:space="preserve">
<g>
	<path d="M21.6,8.6c2.2,1.7,3.4,4.2,3.4,7.5c0,3.5-1.1,6.1-3.3,7.8c-2.2,1.8-5.1,2.6-8.8,2.6H9.5v10.2H2.2V6.1h9.9
		C16.2,6.1,19.3,6.9,21.6,8.6z M16.1,20.1c0.9-0.8,1.4-2.1,1.4-4c0-3.2-1.8-4.8-5.4-4.8H9.5v10.1h2.7C13.9,21.3,15.2,20.9,16.1,20.1
		z"/>
	<path d="M47.7,27.1H33.1c0.2,2,0.8,3.4,1.7,4.2c0.9,0.8,2.1,1.2,3.7,1.2c0.9,0,1.9-0.2,2.7-0.5c0.9-0.3,1.8-0.9,2.9-1.6l2.9,3.9
		c-2.7,2.2-5.8,3.3-9.2,3.3c-3.8,0-6.7-1.1-8.8-3.4c-2-2.2-3.1-5.3-3.1-9c0-2.4,0.4-4.5,1.3-6.4c0.9-1.9,2.1-3.4,3.8-4.5
		c1.7-1.1,3.6-1.7,5.9-1.7c3.4,0,6.1,1.1,8,3.2c1.9,2.1,2.9,5.1,2.9,8.9C47.8,25.5,47.8,26.4,47.7,27.1z M41,22.6
		c-0.1-3.6-1.3-5.4-3.8-5.4c-1.2,0-2.1,0.4-2.8,1.3s-1.1,2.3-1.2,4.4H41V22.6z"/>
	<path d="M73.5,14.7c-1.5,0.6-3.8,0.9-6.8,0.9c1.5,0.6,2.7,1.4,3.4,2.4c0.7,0.9,1.1,2.2,1.1,3.7c0,1.5-0.4,2.9-1.2,4.1
		s-1.9,2.1-3.4,2.8c-1.5,0.7-3.2,1-5.2,1c-0.9,0-1.8-0.1-2.7-0.3c-0.2,0.1-0.4,0.3-0.6,0.6c-0.1,0.3-0.2,0.5-0.2,0.8
		c0,0.4,0.2,0.8,0.5,1c0.3,0.3,1,0.4,2.1,0.4h3.5c1.8,0,3.4,0.3,4.7,0.9c1.4,0.6,2.4,1.4,3.1,2.4c0.7,1,1.1,2.2,1.1,3.5
		c0,2.5-1.1,4.4-3.2,5.7c-2.1,1.4-5.2,2.1-9.1,2.1c-2.9,0-5.1-0.3-6.8-0.9c-1.7-0.6-2.8-1.5-3.5-2.5s-1-2.5-1-4.1h6.3
		c0,0.7,0.1,1.3,0.4,1.7c0.3,0.4,0.8,0.7,1.5,0.9c0.7,0.2,1.8,0.3,3.2,0.3c1.9,0,3.2-0.2,4-0.7c0.7-0.5,1.1-1.1,1.1-2
		c0-0.7-0.3-1.3-0.8-1.7c-0.6-0.4-1.4-0.6-2.5-0.6h-3.4c-2.4,0-4.2-0.4-5.4-1.3c-1.2-0.9-1.8-2-1.8-3.3c0-0.9,0.3-1.7,0.8-2.5
		c0.5-0.8,1.2-1.5,2-2c-1.5-0.8-2.5-1.7-3.2-2.8c-0.7-1.1-1-2.4-1-3.9c0-2.6,0.9-4.7,2.8-6.3c1.9-1.6,4.4-2.3,7.5-2.3
		c2.4,0.1,4.4-0.2,6-0.7s3.3-1.3,5.1-2.3L73.5,14.7z M58.3,18.2c-0.6,0.7-1,1.6-1,2.9c0,1.3,0.3,2.3,1,2.9c0.6,0.7,1.5,1,2.6,1
		c1.2,0,2-0.3,2.6-1c0.6-0.7,0.9-1.7,0.9-3.1c0-2.5-1.2-3.8-3.5-3.8C59.8,17.1,59,17.5,58.3,18.2z"/>
	<path d="M93.9,15.8c2,2.2,3.1,5.3,3.1,9.2c0,2.5-0.5,4.7-1.4,6.6c-0.9,1.9-2.3,3.3-4,4.4c-1.7,1-3.8,1.6-6.1,1.6
		c-3.6,0-6.4-1.1-8.4-3.3c-2.1-2.2-3.1-5.3-3.1-9.2c0-2.5,0.5-4.7,1.4-6.6s2.3-3.3,4-4.4c1.7-1,3.8-1.6,6.1-1.6
		C89,12.5,91.8,13.6,93.9,15.8z M82.2,19.5c-0.7,1.2-1.1,3-1.1,5.6c0,2.6,0.3,4.4,1,5.6c0.7,1.2,1.8,1.8,3.2,1.8
		c1.4,0,2.5-0.6,3.2-1.8c0.7-1.2,1.1-3,1.1-5.6c0-2.6-0.3-4.4-1-5.6c-0.7-1.2-1.8-1.8-3.2-1.8C84,17.7,82.9,18.3,82.2,19.5z"/>
	<path d="M116.2,12.9l-1.1,6.8c-0.9-0.2-1.6-0.3-2.1-0.3c-1.4,0-2.4,0.5-3.2,1.4c-0.7,1-1.3,2.4-1.7,4.3v11.7h-7V13.3h6.1l0.6,4.6
		c0.5-1.6,1.3-2.9,2.4-3.8c1.1-0.9,2.3-1.4,3.7-1.4C114.7,12.6,115.5,12.7,116.2,12.9z"/>
	<path d="M136.4,31.9c0.3,0.4,0.7,0.7,1.2,0.9l-1.5,4.6c-1.4-0.1-2.6-0.4-3.5-1s-1.6-1.3-2.1-2.5c-1.5,2.4-3.9,3.5-7.1,3.5
		c-2.3,0-4.2-0.7-5.6-2c-1.4-1.4-2.1-3.1-2.1-5.3c0-2.6,0.9-4.5,2.8-5.9s4.6-2,8.2-2h2.4v-1c0-1.4-0.3-2.3-0.9-2.9
		c-0.6-0.5-1.6-0.8-3.1-0.8c-0.8,0-1.7,0.1-2.8,0.3c-1.1,0.2-2.2,0.5-3.4,0.9l-1.6-4.6c1.5-0.6,3-1,4.5-1.3c1.6-0.3,3-0.4,4.3-0.4
		c3.4,0,5.8,0.7,7.4,2.1c1.6,1.4,2.3,3.5,2.3,6.2V30C136,30.9,136.1,31.5,136.4,31.9z M129.2,30.3v-4.2h-1.7c-1.6,0-2.8,0.3-3.6,0.8
		c-0.8,0.6-1.2,1.4-1.2,2.6c0,0.9,0.2,1.7,0.7,2.2s1.2,0.8,2,0.8C127,32.6,128.3,31.8,129.2,30.3z"/>
	<path d="M156.7,12.9l-1.1,6.8c-0.9-0.2-1.6-0.3-2.1-0.3c-1.4,0-2.4,0.5-3.2,1.4c-0.7,1-1.3,2.4-1.7,4.3v11.7h-7V13.3h6.1l0.6,4.6
		c0.5-1.6,1.3-2.9,2.4-3.8c1.1-0.9,2.3-1.4,3.7-1.4C155.2,12.6,156,12.7,156.7,12.9z"/>
	<path d="M165.8,2c0.8,0.8,1.2,1.7,1.2,2.9c0,1.2-0.4,2.1-1.2,2.9c-0.8,0.8-1.8,1.1-3,1.1c-1.2,0-2.2-0.4-3-1.1
		c-0.8-0.8-1.2-1.7-1.2-2.9c0-1.2,0.4-2.1,1.2-2.9c0.8-0.8,1.8-1.1,3-1.1C164,0.9,165,1.2,165.8,2z M166.4,13.3v23.5h-7V13.3H166.4z
		"/>
	<path d="M177.2,30.7c0.8,0.8,1.2,1.7,1.2,2.8c0,1.1-0.4,2.1-1.2,2.9s-1.7,1.2-2.8,1.2c-1.1,0-2.1-0.4-2.9-1.2
		c-0.8-0.8-1.2-1.7-1.2-2.9c0-1.1,0.4-2,1.2-2.8c0.8-0.8,1.7-1.2,2.9-1.2C175.5,29.5,176.5,29.9,177.2,30.7z"/>
</g>
</svg>
